REM DIRINDEX 1\2,1\3,1\4,1\5
REM DIRNAME folder01,folder02,folder03,folder04,folder05
TITLE ""
FILE "1Q_t_0433-0442.mp3" MP3
  TRACK 01 AUDIO
    TITLE "3:cjc004_2200"
    INDEX 01 00:00:00
  TRACK 02 AUDIO
    TITLE "0:"
    INDEX 01 00:01:09
  TRACK 03 AUDIO
    TITLE "4:cjc004_2201"
    INDEX 01 00:01:38
  TRACK 04 AUDIO
    TITLE "0:"
    INDEX 01 00:02:40
  TRACK 05 AUDIO
    TITLE "5:cjc004_2202"
    INDEX 01 00:02:67
  TRACK 06 AUDIO
    TITLE "0:"
    INDEX 01 00:08:21
  TRACK 07 AUDIO
    TITLE "3:cjc004_2203"
    INDEX 01 00:09:02
  TRACK 08 AUDIO
    TITLE "0:"
    INDEX 01 00:10:04
  TRACK 09 AUDIO
    TITLE "4:cjc004_2204"
    INDEX 01 00:10:39
  TRACK 10 AUDIO
    TITLE "0:"
    INDEX 01 00:11:52
  TRACK 11 AUDIO
    TITLE "5:cjc004_2205"
    INDEX 01 00:12:03
  TRACK 12 AUDIO
    TITLE "0:"
    INDEX 01 00:16:61
  TRACK 13 AUDIO
    TITLE "3:cjc004_2206"
    INDEX 01 00:17:45
  TRACK 14 AUDIO
    TITLE "0:"
    INDEX 01 00:18:64
  TRACK 15 AUDIO
    TITLE "4:cjc004_2207"
    INDEX 01 00:19:18
  TRACK 16 AUDIO
    TITLE "0:"
    INDEX 01 00:20:24
  TRACK 17 AUDIO
    TITLE "5:cjc004_2208"
    INDEX 01 00:20:49
  TRACK 18 AUDIO
    TITLE "0:"
    INDEX 01 00:26:01
  TRACK 19 AUDIO
    TITLE "3:cjc004_2209"
    INDEX 01 00:26:52
  TRACK 20 AUDIO
    TITLE "0:"
    INDEX 01 00:27:57
  TRACK 21 AUDIO
    TITLE "4:cjc004_2210"
    INDEX 01 00:28:12
  TRACK 22 AUDIO
    TITLE "0:"
    INDEX 01 00:29:21
  TRACK 23 AUDIO
    TITLE "5:cjc004_2211"
    INDEX 01 00:29:46
  TRACK 24 AUDIO
    TITLE "0:"
    INDEX 01 00:34:36
  TRACK 25 AUDIO
    TITLE "3:cjc004_2212"
    INDEX 01 00:34:63
  TRACK 26 AUDIO
    TITLE "0:"
    INDEX 01 00:35:66
  TRACK 27 AUDIO
    TITLE "4:cjc004_2213"
    INDEX 01 00:36:15
  TRACK 28 AUDIO
    TITLE "0:"
    INDEX 01 00:37:36
  TRACK 29 AUDIO
    TITLE "5:cjc004_2214"
    INDEX 01 00:37:59
  TRACK 30 AUDIO
    TITLE "0:"
    INDEX 01 00:43:01
  TRACK 31 AUDIO
    TITLE "3:cjc004_2215"
    INDEX 01 00:43:50
  TRACK 32 AUDIO
    TITLE "0:"
    INDEX 01 00:45:00
  TRACK 33 AUDIO
    TITLE "4:cjc004_2216"
    INDEX 01 00:45:30
  TRACK 34 AUDIO
    TITLE "0:"
    INDEX 01 00:46:45
  TRACK 35 AUDIO
    TITLE "5:cjc004_2217"
    INDEX 01 00:46:72
  TRACK 36 AUDIO
    TITLE "0:"
    INDEX 01 00:52:18
  TRACK 37 AUDIO
    TITLE "3:cjc004_2218"
    INDEX 01 00:52:73
  TRACK 38 AUDIO
    TITLE "0:"
    INDEX 01 00:54:09
  TRACK 39 AUDIO
    TITLE "4:cjc004_2219"
    INDEX 01 00:54:40
  TRACK 40 AUDIO
    TITLE "0:"
    INDEX 01 00:55:51
  TRACK 41 AUDIO
    TITLE "5:cjc004_2220"
    INDEX 01 00:55:71
  TRACK 42 AUDIO
    TITLE "0:"
    INDEX 01 01:00:49
  TRACK 43 AUDIO
    TITLE "3:cjc004_2221"
    INDEX 01 01:01:23
  TRACK 44 AUDIO
    TITLE "0:"
    INDEX 01 01:02:24
  TRACK 45 AUDIO
    TITLE "4:cjc004_2222"
    INDEX 01 01:02:52
  TRACK 46 AUDIO
    TITLE "0:"
    INDEX 01 01:03:57
  TRACK 47 AUDIO
    TITLE "5:cjc004_2223"
    INDEX 01 01:04:07
  TRACK 48 AUDIO
    TITLE "0:"
    INDEX 01 01:08:38
  TRACK 49 AUDIO
    TITLE "3:cjc004_2224"
    INDEX 01 01:09:16
  TRACK 50 AUDIO
    TITLE "0:"
    INDEX 01 01:10:39
  TRACK 51 AUDIO
    TITLE "4:cjc004_2225"
    INDEX 01 01:10:67
  TRACK 52 AUDIO
    TITLE "0:"
    INDEX 01 01:12:48
  TRACK 53 AUDIO
    TITLE "5:cjc004_2226"
    INDEX 01 01:13:00
  TRACK 54 AUDIO
    TITLE "0:"
    INDEX 01 01:17:51
  TRACK 55 AUDIO
    TITLE "3:cjc004_2227"
    INDEX 01 01:18:31
  TRACK 56 AUDIO
    TITLE "0:"
    INDEX 01 01:19:40
  TRACK 57 AUDIO
    TITLE "4:cjc004_2228"
    INDEX 01 01:19:70
  TRACK 58 AUDIO
    TITLE "0:"
    INDEX 01 01:20:69
  TRACK 59 AUDIO
    TITLE "5:cjc004_2229"
    INDEX 01 01:21:16
  TRACK 60 AUDIO
    TITLE "0:"
    INDEX 01 01:26:54
